{
  "asset": {
    "extras": {
      "author": "drydoctoregg (https://sketchfab.com/drydoctoregg)",
      "license": "CC-BY-4.0 (http://creativecommons.org/licenses/by/4.0/)",
      "source": "https://sketchfab.com/3d-models/glasses-bd1104e5ad1e4a1b9e1793a606c5be82",
      "title": "Glasses"
    },
    "generator": "Sketchfab-12.66.0",
    "version": "2.0"
  },
  "buffers": [
    {
      "uri": "data:application/octet-stream;base64,",
      "byteLength": 213232
    }
  ],
  "bufferViews": [
    {
      "buffer": 0,
      "byteOffset": 0,
      "byteLength": 90096,
      "byteStride": 24,
      "target": 34962
    },
    {
      "buffer": 0,
      "byteOffset": 90096,
      "byteLength": 60064,
      "byteStride": 16,
      "target": 34962
    },
    {
      "buffer": 0,
      "byteOffset": 150160,
      "byteLength": 63072,
      "target": 34963
    }
  ],
  "accessors": [
    {
      "bufferView": 0,
      "byteOffset": 0,
      "componentType": 5126,
      "normalized": false,
      "count": 3754,
      "min": [
        -1,
        -1,
        -0.9952254891395569
      ],
      "max": [
        1,
        0.9999968409538269,
        0.980369508266449
      ],
      "type": "VEC3"
    },
    {
      "bufferView": 0,
      "byteOffset": 12,
      "componentType": 5126,
      "normalized": false,
      "count": 3754,
      "min": [
        -1.4234330654144287,
        -0.016200602054595947,
        -0.5945081114768982
      ],
      "max": [
        1.4234330654144287,
        1.761137843132019,
        0.35349810123443604
      ],
      "type": "VEC3"
    },
    {
      "bufferView": 1,
      "byteOffset": 0,
      "componentType": 5126,
      "normalized": false,
      "count": 3754,
      "min": [
        0.0004692049406003207,
        0.0005390849546529353
      ],
      "max": [
        0.9999939799308777,
        0.9999939203262329
      ],
      "type": "VEC2"
    },
    {
      "bufferView": 1,
      "byteOffset": 8,
      "componentType": 5126,
      "normalized": false,
      "count": 3754,
      "min": [
        0.0004692049406003207,
        0.0005390849546529353
      ],
      "max": [
        0.9999939799308777,
        0.9999939203262329
      ],
      "type": "VEC2"
    },
    {
      "bufferView": 2,
      "byteOffset": 0,
      "componentType": 5125,
      "normalized": false,
      "count": 15768,
      "min": [
        0
      ],
      "max": [
        3753
      ],
      "type": "SCALAR"
    }
  ],
  "scene": 0,
  "scenes": [
    {
      "nodes": [
        4
      ],
      "name": "glasses-4"
    }
  ],
  "nodes": [
    {
      "name": "Glases_Glasses Baked Textures_0",
      "mesh": 0
    },
    {
      "name": "Glases",
      "children": [
        0
      ],
      "matrix": [
        100,
        0,
        0,
        0,
        0,
        -0.000030294630050775595,
        -100.00000762939453,
        0,
        0,
        100.00000762939453,
        -0.000030294630050775595,
        0,
        0,
        0,
        0,
        1
      ]
    },
    {
      "name": "RootNode",
      "children": [
        1
      ]
    },
    {
      "name": "7179903dc3264c318a180793a6356947.fbx",
      "children": [
        2
      ],
      "matrix": [
        0.009999999776482582,
        0,
        0,
        0,
        0,
        3.42285422227917e-10,
        0.009999999776482582,
        0,
        0,
        -0.009999999776482582,
        3.42285422227917e-10,
        0,
        0,
        0,
        0,
        1
      ]
    },
    {
      "name": "Sketchfab_model",
      "children": [
        3
      ],
      "matrix": [
        0.36500000953674316,
        0,
        0,
        0,
        0,
        1.249341785580782e-8,
        -0.36500000953674316,
        0,
        0,
        0.36500000953674316,
        1.249341785580782e-8,
        0,
        0.05000000074505806,
        0.10000000149011612,
        0.014999999664723873,
        1
      ]
    }
  ],
  "meshes": [
    {
      "primitives": [
        {
          "material": 0,
          "mode": 4,
          "attributes": {
            "NORMAL": 0,
            "POSITION": 1,
            "TEXCOORD_0": 2,
            "TEXCOORD_1": 3
          },
          "indices": 4
        }
      ]
    }
  ],
  "materials": [
    {
      "name": "Glasses_Baked_Textures",
      "pbrMetallicRoughness": {
        "baseColorFactor": [
          1,
          1,
          1,
          1
        ],
        "metallicFactor": 1,
        "roughnessFactor": 1,
        "baseColorTexture": {
          "index": 0,
          "texCoord": 0
        },
        "metallicRoughnessTexture": {
          "index": 1,
          "texCoord": 0
        }
      },
      "emissiveFactor": [
        0,
        0,
        0
      ],
      "alphaMode": "BLEND",
      "doubleSided": true
    }
  ],
  "textures": [
    {
      "sampler": 0,
      "name": "base",
      "source": 0
    },
    {
      "sampler": 1,
      "name": "metallicRoughness",
      "source": 1
    }
  ],
  "samplers": [
    {
      "magFilter": 9729,
      "minFilter": 9987,
      "wrapS": 10497,
      "wrapT": 10497
    },
    {
      "magFilter": 9729,
      "minFilter": 9987,
      "wrapS": 10497,
      "wrapT": 10497
    }
  ],
  "images": [
    {
      "uri": "data:,",
      "mimeType": "image/jpeg"
    },
    {
      "uri": "data:,",
      "mimeType": "image/jpeg"
    }
  ]
}