{
  "asset": {
    "extras": {
      "author": "drydoctoregg (https://sketchfab.com/drydoctoregg)",
      "license": "CC-BY-4.0 (http://creativecommons.org/licenses/by/4.0/)",
      "source": "https://sketchfab.com/3d-models/glasses-bd1104e5ad1e4a1b9e1793a606c5be82",
      "title": "Glasses"
    },
    "generator": "Sketchfab-12.66.0",
    "version": "2.0"
  },
  "buffers": [
    {
      "uri": "data:application/octet-stream;base64,",
      "byteLength": 37800
    },
    {
      "uri": "data:application/octet-stream;base64,",
      "byteLength": 212016
    }
  ],
  "bufferViews": [
    {
      "buffer": 0,
      "byteOffset": 0,
      "byteLength": 30240,
      "byteStride": 24,
      "target": 34962
    },
    {
      "buffer": 0,
      "byteOffset": 30240,
      "byteLength": 7560,
      "target": 34963
    },
    {
      "buffer": 1,
      "byteOffset": 0,
      "byteLength": 108336,
      "byteStride": 24,
      "target": 34962
    },
    {
      "buffer": 1,
      "byteOffset": 108336,
      "byteLength": 103680,
      "target": 34963
    }
  ],
  "accessors": [
    {
      "bufferView": 0,
      "byteOffset": 0,
      "componentType": 5126,
      "normalized": false,
      "count": 1260,
      "min": [
        -0.8977140188217163,
        -0.6391597986221313,
        -0.9967584609985352
      ],
      "max": [
        0.9654789566993713,
        0.9900023341178894,
        0.9347686171531677
      ],
      "type": "VEC3"
    },
    {
      "bufferView": 0,
      "byteOffset": 12,
      "componentType": 5126,
      "normalized": false,
      "count": 1260,
      "min": [
        -1.1301548480987549,
        -1.4120062589645386,
        0.5571901798248291
      ],
      "max": [
        -1.1107127666473389,
        -1.3764516115188599,
        0.6067544221878052
      ],
      "type": "VEC3"
    },
    {
      "bufferView": 1,
      "byteOffset": 0,
      "componentType": 5125,
      "normalized": false,
      "count": 1890,
      "min": [
        0
      ],
      "max": [
        1259
      ],
      "type": "SCALAR"
    },
    {
      "bufferView": 2,
      "byteOffset": 0,
      "componentType": 5126,
      "normalized": false,
      "count": 4514,
      "min": [
        0.13721391558647156,
        -0.9875546097755432,
        0.03808772191405296
      ],
      "max": [
        0.6833544373512268,
        -0.7256852984428406,
        0.12888342142105103
      ],
      "type": "VEC3"
    },
    {
      "bufferView": 2,
      "byteOffset": 12,
      "componentType": 5126,
      "normalized": false,
      "count": 4514,
      "min": [
        -1.030073642730713,
        -1.5525202751159668,
        -0.038840144872665405
      ],
      "max": [
        1.8841094970703125,
        -0.14725244045257568,
        0.9635759592056274
      ],
      "type": "VEC3"
    },
    {
      "bufferView": 3,
      "byteOffset": 0,
      "componentType": 5125,
      "normalized": false,
      "count": 25920,
      "min": [
        0
      ],
      "max": [
        4513
      ],
      "type": "SCALAR"
    }
  ],
  "scene": 0,
  "scenes": [
    {
      "nodes": [
        19
      ],
      "name": "glasses-3"
    }
  ],
  "nodes": [
    {
      "name": "Cylinder_frame_0"
    },
    {
      "name": "Cylinder",
      "children": [
        0
      ],
      "matrix": [
        90.00260162353516,
        -0.000004277371772332117,
        43.58367919921875,
        0,
        43.58367919921875,
        -0.000008089919901976828,
        -90.00260162353516,
        0,
        0.000008046613402257208,
        100,
        -0.000005262985268927878,
        0,
        79.5631332397461,
        -0.8003950119018555,
        -190.09764099121094,
        1
      ]
    },
    {
      "name": "BezierCurve.002_frame_0"
    },
    {
      "name": "BezierCurve.002",
      "children": [
        2
      ],
      "matrix": [
        100.00003814697266,
        -0.000002972807578771608,
        0.000004459211595531087,
        0,
        0.0000044592111407837365,
        -0.000013435890650725923,
        -100.00003814697266,
        0,
        0.0000029728073513979325,
        100,
        -0.000013435885193757713,
        0,
        79.56315612792969,
        -0.8003890514373779,
        -190.09762573242188,
        1
      ]
    },
    {
      "name": "Cylinder.002_nose_protector_0"
    },
    {
      "name": "Cylinder.002",
      "children": [
        4
      ],
      "matrix": [
        90.00260162353516,
        -0.000004277371772332117,
        43.58367919921875,
        0,
        43.58367919921875,
        -0.000008089919901976828,
        -90.00260162353516,
        0,
        0.000008046613402257208,
        100,
        -0.000005262985268927878,
        0,
        79.56314849853516,
        -0.8003950119018555,
        -190.09764099121094,
        1
      ]
    },
    {
      "name": "Cube.002_leatherhandle_0"
    },
    {
      "name": "Cube.002",
      "children": [
        6
      ],
      "matrix": [
        90.00260162353516,
        -0.000004277371772332117,
        43.58367919921875,
        0,
        43.58367919921875,
        -0.000008089919901976828,
        -90.00260162353516,
        0,
        0.000008046613402257208,
        100,
        -0.000005262985268927878,
        0,
        79.56315612792969,
        -0.8003860712051392,
        -190.09765625,
        1
      ]
    },
    {
      "name": "Cube.001_handle_0"
    },
    {
      "name": "Cube.001_handle_0",
      "mesh": 0
    },
    {
      "name": "Cube.001",
      "children": [
        8,
        9
      ],
      "matrix": [
        90.00260162353516,
        -0.000004277371772332117,
        43.58367919921875,
        0,
        43.58367919921875,
        -0.000008089919901976828,
        -90.00260162353516,
        0,
        0.000008046613402257208,
        100,
        -0.000005262985268927878,
        0,
        79.56314849853516,
        -0.8003890514373779,
        -190.09762573242188,
        1
      ]
    },
    {
      "name": "BezierCurve.001_Glass02_0",
      "mesh": 1
    },
    {
      "name": "BezierCurve.001",
      "children": [
        11
      ],
      "matrix": [
        90.00260162353516,
        -0.000004277371772332117,
        43.58367919921875,
        0,
        43.58367919921875,
        -0.000008089919901976828,
        -90.00260162353516,
        0,
        0.000008046613402257208,
        100,
        -0.000005262985268927878,
        0,
        79.56314849853516,
        -0.8003860712051392,
        -190.09764099121094,
        1
      ]
    },
    {
      "name": "Cylinder.001_frame_0"
    },
    {
      "name": "Cylinder.001",
      "children": [
        13
      ],
      "matrix": [
        90.00260162353516,
        -0.000004277371772332117,
        43.58367919921875,
        0,
        43.58367919921875,
        -0.000008089919901976828,
        -90.00260162353516,
        0,
        0.000008046613402257208,
        100,
        -0.000005262985268927878,
        0,
        79.56314849853516,
        -0.8003890514373779,
        -190.09765625,
        1
      ]
    },
    {
      "name": "BezierCurve_frame_0"
    },
    {
      "name": "BezierCurve",
      "children": [
        15
      ],
      "matrix": [
        90.00260162353516,
        -0.000004277371772332117,
        43.58367919921875,
        0,
        43.58367919921875,
        -0.000008089919901976828,
        -90.00260162353516,
        0,
        0.000008046613402257208,
        100,
        -0.000005262985268927878,
        0,
        79.56315612792969,
        -0.8003890514373779,
        -190.09764099121094,
        1
      ]
    },
    {
      "name": "RootNode",
      "children": [
        1,
        3,
        5,
        7,
        10,
        12,
        14,
        16
      ]
    },
    {
      "name": "f6b6407a7ccf423d8517435d5ea55064.fbx",
      "children": [
        17
      ],
      "matrix": [
        1,
        0,
        0,
        0,
        0,
        3.4228538225988814e-8,
        0.9999998211860657,
        0,
        0,
        -0.9999998211860657,
        3.4228538225988814e-8,
        0,
        0,
        0,
        0,
        1
      ]
    },
    {
      "name": "Sketchfab_model",
      "children": [
        18
      ],
      "matrix": [
        0.003000000026077032,
        0,
        0,
        0,
        0,
        1.0268562389281755e-10,
        -0.003000000026077032,
        0,
        0,
        0.003000000026077032,
        1.0268562389281755e-10,
        0,
        -0.18000000715255737,
        -0.09000000357627869,
        0.2199999988079071,
        1
      ]
    }
  ],
  "meshes": [
    {
      "primitives": [
        {
          "material": 0,
          "mode": 4,
          "attributes": {
            "NORMAL": 0,
            "POSITION": 1
          },
          "indices": 2
        }
      ]
    },
    {
      "primitives": [
        {
          "material": 1,
          "mode": 4,
          "attributes": {
            "NORMAL": 3,
            "POSITION": 4
          },
          "indices": 5
        }
      ]
    }
  ],
  "materials": [
    {
      "name": "handle",
      "pbrMetallicRoughness": {
        "baseColorFactor": [
          0.11372549019607843,
          0.11372549019607843,
          0.11372549019607843,
          1
        ],
        "metallicFactor": 0.8200241089,
        "roughnessFactor": 0.21633952749999996
      },
      "emissiveFactor": [
        0,
        0,
        0
      ],
      "alphaMode": "OPAQUE",
      "doubleSided": true
    },
    {
      "name": "Glass02",
      "pbrMetallicRoughness": {
        "baseColorFactor": [
          1,
          1,
          1,
          0.25
        ],
        "metallicFactor": 0.4745695634,
        "roughnessFactor": 0.30118801230000003
      },
      "emissiveFactor": [
        0,
        0,
        0
      ],
      "alphaMode": "BLEND",
      "doubleSided": true,
      "extensions": {
        "KHR_materials_transmission": {
          "transmissionFactor": 0.7920971032344933
        }
      }
    }
  ],
  "extensionsUsed": [
    "KHR_materials_transmission"
  ]
}