{
  "asset": {
    "extras": {
      "author": "AlbertVictory (https://sketchfab.com/albert_victory)",
      "license": "CC-BY-4.0 (http://creativecommons.org/licenses/by/4.0/)",
      "source": "https://sketchfab.com/3d-models/glasses-4b8a1e54f3084c63828fe8c324198aec",
      "title": "Glasses"
    },
    "generator": "Sketchfab-14.2.0",
    "version": "2.0"
  },
  "buffers": [
    {
      "uri": "data:application/octet-stream;base64,",
      "byteLength": 222704
    },
    {
      "uri": "data:application/octet-stream;base64,",
      "byteLength": 32784
    },
    {
      "uri": "data:application/octet-stream;base64,",
      "byteLength": 107824
    },
    {
      "uri": "data:application/octet-stream;base64,",
      "byteLength": 32784
    }
  ],
  "bufferViews": [
    {
      "buffer": 0,
      "byteOffset": 0,
      "byteLength": 95424,
      "byteStride": 24,
      "target": 34962
    },
    {
      "buffer": 0,
      "byteOffset": 95424,
      "byteLength": 31808,
      "byteStride": 8,
      "target": 34962
    },
    {
      "buffer": 0,
      "byteOffset": 127232,
      "byteLength": 95472,
      "target": 34963
    },
    {
      "buffer": 1,
      "byteOffset": 0,
      "byteLength": 20736,
      "byteStride": 24,
      "target": 34962
    },
    {
      "buffer": 1,
      "byteOffset": 20736,
      "byteLength": 6912,
      "byteStride": 8,
      "target": 34962
    },
    {
      "buffer": 1,
      "byteOffset": 27648,
      "byteLength": 5136,
      "target": 34963
    },
    {
      "buffer": 2,
      "byteOffset": 0,
      "byteLength": 47712,
      "byteStride": 24,
      "target": 34962
    },
    {
      "buffer": 2,
      "byteOffset": 47712,
      "byteLength": 15904,
      "byteStride": 8,
      "target": 34962
    },
    {
      "buffer": 2,
      "byteOffset": 63616,
      "byteLength": 44208,
      "target": 34963
    },
    {
      "buffer": 3,
      "byteOffset": 0,
      "byteLength": 20736,
      "byteStride": 24,
      "target": 34962
    },
    {
      "buffer": 3,
      "byteOffset": 20736,
      "byteLength": 6912,
      "byteStride": 8,
      "target": 34962
    },
    {
      "buffer": 3,
      "byteOffset": 27648,
      "byteLength": 5136,
      "target": 34963
    }
  ],
  "accessors": [
    {
      "bufferView": 0,
      "byteOffset": 0,
      "componentType": 5126,
      "normalized": false,
      "count": 3976,
      "min": [
        -0.9998676776885986,
        -0.9995414018630981,
        -0.9954008460044861
      ],
      "max": [
        0.99986332654953,
        0.9998407959938049,
        0.9953728914260864
      ],
      "type": "VEC3"
    },
    {
      "bufferView": 0,
      "byteOffset": 12,
      "componentType": 5126,
      "normalized": false,
      "count": 3976,
      "min": [
        -0.8290115594863892,
        -6.350368022918701,
        2.5435421466827393
      ],
      "max": [
        -0.1486983299255371,
        6.092944145202637,
        6.001774787902832
      ],
      "type": "VEC3"
    },
    {
      "bufferView": 1,
      "byteOffset": 0,
      "componentType": 5126,
      "normalized": false,
      "count": 3976,
      "min": [
        0,
        0
      ],
      "max": [
        0,
        0
      ],
      "type": "VEC2"
    },
    {
      "bufferView": 2,
      "byteOffset": 0,
      "componentType": 5125,
      "normalized": false,
      "count": 23868,
      "min": [
        0
      ],
      "max": [
        3975
      ],
      "type": "SCALAR"
    },
    {
      "bufferView": 3,
      "byteOffset": 0,
      "componentType": 5126,
      "normalized": false,
      "count": 864,
      "min": [
        -0.9996523857116699,
        -0.9978136420249939,
        -1
      ],
      "max": [
        0.9996525049209595,
        0.9978136420249939,
        1
      ],
      "type": "VEC3"
    },
    {
      "bufferView": 3,
      "byteOffset": 12,
      "componentType": 5126,
      "normalized": false,
      "count": 864,
      "min": [
        -0.5992984771728516,
        -6.217254638671875,
        5.357339859008789
      ],
      "max": [
        -0.5148169994354248,
        -5.861802101135254,
        5.450202941894531
      ],
      "type": "VEC3"
    },
    {
      "bufferView": 4,
      "byteOffset": 0,
      "componentType": 5126,
      "normalized": false,
      "count": 864,
      "min": [
        0.125,
        0
      ],
      "max": [
        0.875,
        1
      ],
      "type": "VEC2"
    },
    {
      "bufferView": 5,
      "byteOffset": 0,
      "componentType": 5125,
      "normalized": false,
      "count": 1284,
      "min": [
        0
      ],
      "max": [
        863
      ],
      "type": "SCALAR"
    },
    {
      "bufferView": 6,
      "byteOffset": 0,
      "componentType": 5126,
      "normalized": false,
      "count": 1988,
      "min": [
        -0.9999868869781494,
        -0.9984744787216187,
        -0.9914299249649048
      ],
      "max": [
        0.9999942779541016,
        0.9985787272453308,
        0.9978599548339844
      ],
      "type": "VEC3"
    },
    {
      "bufferView": 6,
      "byteOffset": 12,
      "componentType": 5126,
      "normalized": false,
      "count": 1988,
      "min": [
        -0.721297025680542,
        -5.760927677154541,
        2.7427165508270264
      ],
      "max": [
        -0.25667691230773926,
        5.495554447174072,
        5.7859206199646
      ],
      "type": "VEC3"
    },
    {
      "bufferView": 7,
      "byteOffset": 0,
      "componentType": 5126,
      "normalized": false,
      "count": 1988,
      "min": [
        0,
        0
      ],
      "max": [
        0,
        0
      ],
      "type": "VEC2"
    },
    {
      "bufferView": 8,
      "byteOffset": 0,
      "componentType": 5125,
      "normalized": false,
      "count": 11052,
      "min": [
        0
      ],
      "max": [
        1987
      ],
      "type": "SCALAR"
    },
    {
      "bufferView": 9,
      "byteOffset": 0,
      "componentType": 5126,
      "normalized": false,
      "count": 864,
      "min": [
        -0.9999807476997375,
        -0.9951310157775879,
        -1
      ],
      "max": [
        0.9999807476997375,
        0.9951310157775879,
        1
      ],
      "type": "VEC3"
    },
    {
      "bufferView": 9,
      "byteOffset": 12,
      "componentType": 5126,
      "normalized": false,
      "count": 864,
      "min": [
        -0.683006763458252,
        5.610949993133545,
        5.357339859008789
      ],
      "max": [
        -0.5883415937423706,
        5.967228412628174,
        5.450202941894531
      ],
      "type": "VEC3"
    },
    {
      "bufferView": 10,
      "byteOffset": 0,
      "componentType": 5126,
      "normalized": false,
      "count": 864,
      "min": [
        0.125,
        0
      ],
      "max": [
        0.875,
        1
      ],
      "type": "VEC2"
    },
    {
      "bufferView": 11,
      "byteOffset": 0,
      "componentType": 5125,
      "normalized": false,
      "count": 1284,
      "min": [
        0
      ],
      "max": [
        863
      ],
      "type": "SCALAR"
    }
  ],
  "scene": 0,
  "scenes": [
    {
      "nodes": [
        10
      ]
    }
  ],
  "nodes": [
    {
      "name": "main_plastik_0",
      "mesh": 0
    },
    {
      "name": "hrom 1_hrom_0",
      "mesh": 1
    },
    {
      "name": "hrom 1",
      "children": [
        1
      ]
    },
    {
      "name": "glass_glass_0",
      "mesh": 2
    },
    {
      "name": "glass",
      "children": [
        3
      ]
    },
    {
      "name": "hrom 2__0",
      "mesh": 3
    },
    {
      "name": "hrom 2",
      "children": [
        5
      ]
    },
    {
      "name": "main",
      "children": [
        0,
        2,
        4,
        6
      ],
      "matrix": [
        100,
        0,
        0,
        0,
        0,
        -0.000013435885193757713,
        -100,
        0,
        0,
        100,
        -0.000013435885193757713,
        0,
        0,
        0,
        0,
        1
      ]
    },
    {
      "name": "RootNode",
      "children": [
        7
      ]
    },
    {
      "name": "c0333e5f15964c509a1e43e11cdcfc21.fbx",
      "children": [
        8
      ],
      "matrix": [
        0.009999999776482582,
        0,
        0,
        0,
        0,
        3.42285422227917e-10,
        0.009999999776482582,
        0,
        0,
        -0.009999999776482582,
        3.42285422227917e-10,
        0,
        0,
        0,
        0,
        1
      ]
    },
    {
      "name": "Sketchfab_model",
      "children": [
        9
      ],
      "matrix": [
        1,
        0,
        0,
        0,
        0,
        3.422854177870249e-8,
        -0.9999999403953552,
        0,
        0,
        0.9999999403953552,
        3.422854177870249e-8,
        0,
        0,
        0,
        0,
        1
      ]
    }
  ],
  "meshes": [
    {
      "primitives": [
        {
          "material": 0,
          "mode": 4,
          "attributes": {
            "NORMAL": 0,
            "POSITION": 1,
            "TEXCOORD_0": 2
          },
          "indices": 3
        }
      ]
    },
    {
      "primitives": [
        {
          "material": 1,
          "mode": 4,
          "attributes": {
            "NORMAL": 4,
            "POSITION": 5,
            "TEXCOORD_0": 6
          },
          "indices": 7
        }
      ]
    },
    {
      "primitives": [
        {
          "material": 2,
          "mode": 4,
          "attributes": {
            "NORMAL": 8,
            "POSITION": 9,
            "TEXCOORD_0": 10
          },
          "indices": 11
        }
      ]
    },
    {
      "primitives": [
        {
          "material": 3,
          "mode": 4,
          "attributes": {
            "NORMAL": 12,
            "POSITION": 13,
            "TEXCOORD_0": 14
          },
          "indices": 15
        }
      ]
    }
  ],
  "materials": [
    {
      "name": "plastik",
      "pbrMetallicRoughness": {
        "baseColorFactor": [
          0.023529411764705882,
          0.023529411764705882,
          0.023529411764705882,
          1
        ],
        "metallicFactor": 0,
        "roughnessFactor": 0.9958137929078751
      },
      "emissiveFactor": [
        0,
        0,
        0
      ],
      "alphaMode": "OPAQUE",
      "doubleSided": true
    },
    {
      "name": "hrom",
      "pbrMetallicRoughness": {
        "baseColorFactor": [
          1,
          1,
          1,
          1
        ],
        "metallicFactor": 0,
        "roughnessFactor": 0.7061230703835966
      },
      "emissiveFactor": [
        0,
        0,
        0
      ],
      "alphaMode": "OPAQUE",
      "doubleSided": true
    },
    {
      "name": "glass",
      "pbrMetallicRoughness": {
        "baseColorFactor": [
          0.8,
          0.8,
          0.8,
          0.13257183259987076
        ],
        "metallicFactor": 0,
        "roughnessFactor": 1
      },
      "emissiveFactor": [
        0,
        0,
        0
      ],
      "alphaMode": "BLEND",
      "doubleSided": true
    },
    {
      "name": "hrom_2__0",
      "pbrMetallicRoughness": {
        "baseColorFactor": [
          1,
          1,
          1,
          1
        ],
        "metallicFactor": 0,
        "roughnessFactor": 0.6
      },
      "emissiveFactor": [
        0,
        0,
        0
      ],
      "alphaMode": "OPAQUE",
      "doubleSided": true
    }
  ]
}