{
  "accessors": [
    {
      "bufferView": 1,
      "componentType": 5126,
      "count": 2624,
      "max": [
        1.058878779411316,
        -0.7506923675537109,
        0.9445902705192566
      ],
      "min": [
        -0.03536498546600342,
        -1.3163201808929443,
        0.9167470932006836
      ],
      "type": "VEC3"
    },
    {
      "bufferView": 1,
      "byteOffset": 31488,
      "componentType": 5126,
      "count": 2624,
      "max": [
        0.9990569949150085,
        0.9945656657218933,
        0.9998204708099365
      ],
      "min": [
        -0.9994907975196838,
        -0.9978522062301636,
        -0.9998189806938171
      ],
      "type": "VEC3"
    },
    {
      "bufferView": 0,
      "componentType": 5125,
      "count": 4020,
      "type": "SCALAR"
    },
    {
      "bufferView": 1,
      "byteOffset": 62976,
      "componentType": 5126,
      "count": 1012,
      "max": [
        0.2751564681529999,
        -1.0765622854232788,
        0.6047473549842834
      ],
      "min": [
        -0.2751564681529999,
        -1.1336073875427246,
        0.4881702661514282
      ],
      "type": "VEC3"
    },
    {
      "bufferView": 1,
      "byteOffset": 75120,
      "componentType": 5126,
      "count": 1012,
      "max": [
        0.9979943633079529,
        0.9984390735626221,
        0.9962540864944458
      ],
      "min": [
        -0.9979943633079529,
        -0.997835099697113,
        -0.9968731999397278
      ],
      "type": "VEC3"
    },
    {
      "bufferView": 0,
      "byteOffset": 16080,
      "componentType": 5125,
      "count": 4896,
      "type": "SCALAR"
    },
    {
      "bufferView": 1,
      "byteOffset": 87264,
      "componentType": 5126,
      "count": 436,
      "max": [
        0.7042370438575745,
        -0.8280296325683594,
        0.6371217370033264
      ],
      "min": [
        0.2691517174243927,
        -1.1169095039367676,
        0.40611499547958374
      ],
      "type": "VEC3"
    },
    {
      "bufferView": 1,
      "byteOffset": 92496,
      "componentType": 5126,
      "count": 436,
      "max": [
        0.9962264895439148,
        0.9971622228622437,
        0.9925433993339539
      ],
      "min": [
        -0.9989487528800964,
        -0.9995443820953369,
        -0.9951515197753906
      ],
      "type": "VEC3"
    },
    {
      "bufferView": 0,
      "byteOffset": 35664,
      "componentType": 5125,
      "count": 2592,
      "type": "SCALAR"
    },
    {
      "bufferView": 1,
      "byteOffset": 97728,
      "componentType": 5126,
      "count": 7954,
      "max": [
        1.126613736152649,
        2.3922159671783447,
        0.49988678097724915
      ],
      "min": [
        -2.270690441131592,
        0.08159470558166504,
        -0.0447688102722168
      ],
      "type": "VEC3"
    },
    {
      "bufferView": 1,
      "byteOffset": 193176,
      "componentType": 5126,
      "count": 7954,
      "max": [
        0.9983249306678772,
        0.999948263168335,
        0.9968685507774353
      ],
      "min": [
        -0.9989157319068909,
        -0.9975643754005432,
        -0.9997632503509521
      ],
      "type": "VEC3"
    },
    {
      "bufferView": 0,
      "byteOffset": 46032,
      "componentType": 5125,
      "count": 47232,
      "type": "SCALAR"
    },
    {
      "bufferView": 1,
      "byteOffset": 288624,
      "componentType": 5126,
      "count": 65532,
      "max": [
        1.9095522165298462,
        2.3778955936431885,
        0.6381725072860718
      ],
      "min": [
        -2.2548508644104004,
        -1.565434455871582,
        0.021440714597702026
      ],
      "type": "VEC3"
    },
    {
      "bufferView": 1,
      "byteOffset": 1075008,
      "componentType": 5126,
      "count": 65532,
      "max": [
        0.9999359846115112,
        0.9996457099914551,
        0.9995652437210083
      ],
      "min": [
        -0.9999420642852783,
        -0.9999018907546997,
        -0.9995043277740479
      ],
      "type": "VEC3"
    },
    {
      "bufferView": 0,
      "byteOffset": 234960,
      "componentType": 5125,
      "count": 189870,
      "type": "SCALAR"
    },
    {
      "bufferView": 1,
      "byteOffset": 1861392,
      "componentType": 5126,
      "count": 1260,
      "max": [
        -1.1107127666473389,
        -1.3764516115188599,
        0.6067544221878052
      ],
      "min": [
        -1.1301548480987549,
        -1.4120062589645386,
        0.5571901798248291
      ],
      "type": "VEC3"
    },
    {
      "bufferView": 1,
      "byteOffset": 1876512,
      "componentType": 5126,
      "count": 1260,
      "max": [
        0.9654789566993713,
        0.9900023341178894,
        0.9347686171531677
      ],
      "min": [
        -0.8977140188217163,
        -0.6391597986221313,
        -0.9967584609985352
      ],
      "type": "VEC3"
    },
    {
      "bufferView": 0,
      "byteOffset": 994440,
      "componentType": 5125,
      "count": 1890,
      "type": "SCALAR"
    },
    {
      "bufferView": 1,
      "byteOffset": 1891632,
      "componentType": 5126,
      "count": 4514,
      "max": [
        1.8841094970703125,
        -0.14725244045257568,
        0.9635759592056274
      ],
      "min": [
        -1.030073642730713,
        -1.5525202751159668,
        -0.038840144872665405
      ],
      "type": "VEC3"
    },
    {
      "bufferView": 1,
      "byteOffset": 1945800,
      "componentType": 5126,
      "count": 4514,
      "max": [
        0.6833544373512268,
        -0.7256852984428406,
        0.12888342142105103
      ],
      "min": [
        0.13721391558647156,
        -0.9875546097755432,
        0.03808772191405296
      ],
      "type": "VEC3"
    },
    {
      "bufferView": 0,
      "byteOffset": 1002000,
      "componentType": 5125,
      "count": 25920,
      "type": "SCALAR"
    },
    {
      "bufferView": 1,
      "byteOffset": 1999968,
      "componentType": 5126,
      "count": 10496,
      "max": [
        0.7486207485198975,
        -0.9325050115585327,
        0.6952685117721558
      ],
      "min": [
        0.3019144833087921,
        -1.1912907361984253,
        0.6647084951400757
      ],
      "type": "VEC3"
    },
    {
      "bufferView": 1,
      "byteOffset": 2125920,
      "componentType": 5126,
      "count": 10496,
      "max": [
        0.9999845623970032,
        0.9991834759712219,
        0.9995550513267517
      ],
      "min": [
        -0.999649167060852,
        -0.999646782875061,
        -0.99955815076828
      ],
      "type": "VEC3"
    },
    {
      "bufferView": 0,
      "byteOffset": 1105680,
      "componentType": 5125,
      "count": 15744,
      "type": "SCALAR"
    },
    {
      "bufferView": 1,
      "byteOffset": 2251872,
      "componentType": 5126,
      "count": 8448,
      "max": [
        1.9136182069778442,
        -0.11376571655273438,
        0.9856992363929749
      ],
      "min": [
        -1.066114902496338,
        -1.5722757577896118,
        -0.04932957887649536
      ],
      "type": "VEC3"
    },
    {
      "bufferView": 1,
      "byteOffset": 2353248,
      "componentType": 5126,
      "count": 8448,
      "max": [
        0.9997925758361816,
        0.9997813701629639,
        0.9968970417976379
      ],
      "min": [
        -0.9997274875640869,
        -0.9997657537460327,
        -0.9968606233596802
      ],
      "type": "VEC3"
    },
    {
      "bufferView": 0,
      "byteOffset": 1168656,
      "componentType": 5125,
      "count": 50688,
      "type": "SCALAR"
    }
  ],
  "asset": {
    "extras": {
      "author": "datavis3d (https://sketchfab.com/oladoto)",
      "license": "CC-BY-4.0 (http://creativecommons.org/licenses/by/4.0/)",
      "source": "https://sketchfab.com/3d-models/glasses-a00f60192d1740f49902009c3d0aac05",
      "title": "Glasses"
    },
    "generator": "Sketchfab-12.65.0",
    "version": "2.0"
  },
  "bufferViews": [
    {
      "buffer": 0,
      "byteLength": 1371408,
      "name": "floatBufferViews",
      "target": 34963
    },
    {
      "buffer": 0,
      "byteLength": 2454624,
      "byteOffset": 1371408,
      "byteStride": 12,
      "name": "floatBufferViews",
      "target": 34962
    }
  ],
  "buffers": [
    {
      "byteLength": 3826032,
      "uri": "scene.bin"
    }
  ],
  "extensionsUsed": [
    "KHR_materials_transmission"
  ],
  "materials": [
    {
      "doubleSided": true,
      "name": "frame",
      "pbrMetallicRoughness": {
        "baseColorFactor": [
          0.4318373179,
          0.4006646355,
          0.230992978,
          1.0
        ],
        "metallicFactor": 0.7169938058564157,
        "roughnessFactor": 0.33149104262843276
      }
    },
    {
      "alphaMode": "BLEND",
      "doubleSided": true,
      "name": "nose_protector",
      "pbrMetallicRoughness": {
        "baseColorFactor": [
          0.15025472673623833,
          0.1445866271737209,
          0.1445866271737209,
          0.4260847149
        ],
        "metallicFactor": 0.6563877453,
        "roughnessFactor": 0.44058195170000003
      }
    },
    {
      "doubleSided": true,
      "name": "leatherhandle",
      "pbrMetallicRoughness": {
        "baseColorFactor": [
          0.31693325647110404,
          0.31340465143306245,
          0.20400507426493467,
          1.0
        ],
        "metallicFactor": 0.832145321,
        "roughnessFactor": 0.46482437600000004
      }
    },
    {
      "doubleSided": true,
      "name": "handle",
      "pbrMetallicRoughness": {
        "baseColorFactor": [
          0.1156339369,
          0.1156339369,
          0.1156339369,
          1.0
        ],
        "metallicFactor": 0.8200241089,
        "roughnessFactor": 0.21633952749999996
      }
    },
    {
      "alphaMode": "BLEND",
      "doubleSided": true,
      "extensions": {
        "KHR_materials_transmission": {
          "transmissionFactor": 0.7920971032344933
        }
      },
      "name": "Glass02",
      "pbrMetallicRoughness": {
        "baseColorFactor": [
          1.0,
          1.0,
          1.0,
          0.25
        ],
        "metallicFactor": 0.4745695634,
        "roughnessFactor": 0.30118801230000003
      }
    }
  ],
  "meshes": [
    {
      "name": "Cylinder_frame_0",
      "primitives": [
        {
          "attributes": {
            "NORMAL": 1,
            "POSITION": 0
          },
          "indices": 2,
          "material": 0,
          "mode": 4
        }
      ]
    },
    {
      "name": "BezierCurve.002_frame_0",
      "primitives": [
        {
          "attributes": {
            "NORMAL": 4,
            "POSITION": 3
          },
          "indices": 5,
          "material": 0,
          "mode": 4
        }
      ]
    },
    {
      "name": "Cylinder.002_nose_protector_0",
      "primitives": [
        {
          "attributes": {
            "NORMAL": 7,
            "POSITION": 6
          },
          "indices": 8,
          "material": 1,
          "mode": 4
        }
      ]
    },
    {
      "name": "Cube.002_leatherhandle_0",
      "primitives": [
        {
          "attributes": {
            "NORMAL": 10,
            "POSITION": 9
          },
          "indices": 11,
          "material": 2,
          "mode": 4
        }
      ]
    },
    {
      "name": "Cube.001_handle_0",
      "primitives": [
        {
          "attributes": {
            "NORMAL": 13,
            "POSITION": 12
          },
          "indices": 14,
          "material": 3,
          "mode": 4
        }
      ]
    },
    {
      "name": "Cube.001_handle_0",
      "primitives": [
        {
          "attributes": {
            "NORMAL": 16,
            "POSITION": 15
          },
          "indices": 17,
          "material": 3,
          "mode": 4
        }
      ]
    },
    {
      "name": "BezierCurve.001_Glass02_0",
      "primitives": [
        {
          "attributes": {
            "NORMAL": 19,
            "POSITION": 18
          },
          "indices": 20,
          "material": 4,
          "mode": 4
        }
      ]
    },
    {
      "name": "Cylinder.001_frame_0",
      "primitives": [
        {
          "attributes": {
            "NORMAL": 22,
            "POSITION": 21
          },
          "indices": 23,
          "material": 0,
          "mode": 4
        }
      ]
    },
    {
      "name": "BezierCurve_frame_0",
      "primitives": [
        {
          "attributes": {
            "NORMAL": 25,
            "POSITION": 24
          },
          "indices": 26,
          "material": 0,
          "mode": 4
        }
      ]
    }
  ],
  "nodes": [
    {
      "children": [
        1
      ],
      "matrix": [
        1.0,
        0.0,
        0.0,
        0.0,
        0.0,
        2.220446049250313e-16,
        -1.0,
        0.0,
        0.0,
        1.0,
        2.220446049250313e-16,
        0.0,
        0.0,
        0.0,
        0.0,
        1.0
      ],
      "name": "Sketchfab_model"
    },
    {
      "children": [
        2
      ],
      "matrix": [
        1.0,
        0.0,
        0.0,
        0.0,
        0.0,
        0.0,
        1.0,
        0.0,
        0.0,
        -1.0,
        0.0,
        0.0,
        0.0,
        0.0,
        0.0,
        1.0
      ],
      "name": "f6b6407a7ccf423d8517435d5ea55064.fbx"
    },
    {
      "children": [
        3,
        5,
        7,
        9,
        11,
        14,
        16,
        18
      ],
      "name": "RootNode"
    },
    {
      "children": [
        4
      ],
      "matrix": [
        90.00260526269746,
        -4.107995825949284e-06,
        43.58367985202262,
        0.0,
        43.58367985202233,
        -6.360433589083379e-06,
        -90.00260526269746,
        0.0,
        6.469410329668079e-06,
        99.99999999999972,
        -3.934137771111068e-06,
        0.0,
        79.5631332397461,
        -0.8003950119018555,
        -190.09764099121094,
        1.0
      ],
      "name": "Cylinder"
    },
    {
      "mesh": 0,
      "name": "Cylinder_frame_0"
    },
    {
      "children": [
        6
      ],
      "matrix": [
        100.00003814697251,
        -2.9728082012167334e-06,
        4.459212301825104e-06,
        0.0,
        4.459211817493112e-06,
        -1.6292074287340655e-05,
        -100.00003814697124,
        0.0,
        2.9728077936784187e-06,
        99.99999999999862,
        -1.629206793918314e-05,
        0.0,
        79.56315612792969,
        -0.8003890514373779,
        -190.09762573242188,
        1.0
      ],
      "name": "BezierCurve.002"
    },
    {
      "mesh": 1,
      "name": "BezierCurve.002_frame_0"
    },
    {
      "children": [
        8
      ],
      "matrix": [
        90.00260526269746,
        -4.107995825949284e-06,
        43.58367985202262,
        0.0,
        43.58367985202233,
        -6.360433589083379e-06,
        -90.00260526269746,
        0.0,
        6.469410329668079e-06,
        99.99999999999972,
        -3.934137771111068e-06,
        0.0,
        79.56314849853516,
        -0.8003950119018555,
        -190.09764099121094,
        1.0
      ],
      "name": "Cylinder.002"
    },
    {
      "mesh": 2,
      "name": "Cylinder.002_nose_protector_0"
    },
    {
      "children": [
        10
      ],
      "matrix": [
        90.00260526269746,
        -4.107995825949284e-06,
        43.58367985202262,
        0.0,
        43.58367985202233,
        -6.360433589083379e-06,
        -90.00260526269746,
        0.0,
        6.469410329668079e-06,
        99.99999999999972,
        -3.934137771111068e-06,
        0.0,
        79.56315612792969,
        -0.8003860712051392,
        -190.09765625,
        1.0
      ],
      "name": "Cube.002"
    },
    {
      "mesh": 3,
      "name": "Cube.002_leatherhandle_0"
    },
    {
      "children": [
        12,
        13
      ],
      "matrix": [
        90.00260526269746,
        -4.107995825949284e-06,
        43.58367985202262,
        0.0,
        43.58367985202233,
        -6.360433589083379e-06,
        -90.00260526269746,
        0.0,
        6.469410329668079e-06,
        99.99999999999972,
        -3.934137771111068e-06,
        0.0,
        79.56314849853516,
        -0.8003890514373779,
        -190.09762573242188,
        1.0
      ],
      "name": "Cube.001"
    },
    {
      "mesh": 4,
      "name": "Cube.001_handle_0"
    },
    {
      "mesh": 5,
      "name": "Cube.001_handle_0"
    },
    {
      "children": [
        15
      ],
      "matrix": [
        90.00260526269746,
        -4.107995825949284e-06,
        43.58367985202262,
        0.0,
        43.58367985202233,
        -6.360433589083379e-06,
        -90.00260526269746,
        0.0,
        6.469410329668079e-06,
        99.99999999999972,
        -3.934137771111068e-06,
        0.0,
        79.56314849853516,
        -0.8003860712051392,
        -190.09764099121094,
        1.0
      ],
      "name": "BezierCurve.001"
    },
    {
      "mesh": 6,
      "name": "BezierCurve.001_Glass02_0"
    },
    {
      "children": [
        17
      ],
      "matrix": [
        90.00260526269746,
        -4.107995825949284e-06,
        43.58367985202262,
        0.0,
        43.58367985202233,
        -6.360433589083379e-06,
        -90.00260526269746,
        0.0,
        6.469410329668079e-06,
        99.99999999999972,
        -3.934137771111068e-06,
        0.0,
        79.56314849853516,
        -0.8003890514373779,
        -190.09765625,
        1.0
      ],
      "name": "Cylinder.001"
    },
    {
      "mesh": 7,
      "name": "Cylinder.001_frame_0"
    },
    {
      "children": [
        19
      ],
      "matrix": [
        90.00260526269746,
        -4.107995825949284e-06,
        43.58367985202262,
        0.0,
        43.58367985202233,
        -6.360433589083379e-06,
        -90.00260526269746,
        0.0,
        6.469410329668079e-06,
        99.99999999999972,
        -3.934137771111068e-06,
        0.0,
        79.56315612792969,
        -0.8003890514373779,
        -190.09764099121094,
        1.0
      ],
      "name": "BezierCurve"
    },
    {
      "mesh": 8,
      "name": "BezierCurve_frame_0"
    }
  ],
  "scene": 0,
  "scenes": [
    {
      "name": "Sketchfab_Scene",
      "nodes": [
        0
      ]
    }
  ]
}
