{
  "asset": {
    "extras": {
      "author": "drydoctoregg (https://sketchfab.com/drydoctoregg)",
      "license": "CC-BY-4.0 (http://creativecommons.org/licenses/by/4.0/)",
      "source": "https://sketchfab.com/3d-models/glasses-bd1104e5ad1e4a1b9e1793a606c5be82",
      "title": "Glasses"
    },
    "generator": "Sketchfab-12.66.0",
    "version": "2.0"
  },
  "buffers": [
    {
      "uri": "data:application/octet-stream;base64,",
      "byteLength": 79056
    },
    {
      "uri": "data:application/octet-stream;base64,",
      "byteLength": 43872
    },
    {
      "uri": "data:application/octet-stream;base64,",
      "byteLength": 20832
    },
    {
      "uri": "data:application/octet-stream;base64,",
      "byteLength": 37800
    },
    {
      "uri": "data:application/octet-stream;base64,",
      "byteLength": 314880
    },
    {
      "uri": "data:application/octet-stream;base64,",
      "byteLength": 405504
    }
  ],
  "bufferViews": [
    {
      "buffer": 0,
      "byteOffset": 0,
      "byteLength": 62976,
      "byteStride": 24,
      "target": 34962
    },
    {
      "buffer": 0,
      "byteOffset": 62976,
      "byteLength": 16080,
      "target": 34963
    },
    {
      "buffer": 1,
      "byteOffset": 0,
      "byteLength": 24288,
      "byteStride": 24,
      "target": 34962
    },
    {
      "buffer": 1,
      "byteOffset": 24288,
      "byteLength": 19584,
      "target": 34963
    },
    {
      "buffer": 2,
      "byteOffset": 0,
      "byteLength": 10464,
      "byteStride": 24,
      "target": 34962
    },
    {
      "buffer": 2,
      "byteOffset": 10464,
      "byteLength": 10368,
      "target": 34963
    },
    {
      "buffer": 3,
      "byteOffset": 0,
      "byteLength": 30240,
      "byteStride": 24,
      "target": 34962
    },
    {
      "buffer": 3,
      "byteOffset": 30240,
      "byteLength": 7560,
      "target": 34963
    },
    {
      "buffer": 4,
      "byteOffset": 0,
      "byteLength": 251904,
      "byteStride": 24,
      "target": 34962
    },
    {
      "buffer": 4,
      "byteOffset": 251904,
      "byteLength": 62976,
      "target": 34963
    },
    {
      "buffer": 5,
      "byteOffset": 0,
      "byteLength": 202752,
      "byteStride": 24,
      "target": 34962
    },
    {
      "buffer": 5,
      "byteOffset": 202752,
      "byteLength": 202752,
      "target": 34963
    }
  ],
  "accessors": [
    {
      "bufferView": 0,
      "byteOffset": 0,
      "componentType": 5126,
      "normalized": false,
      "count": 2624,
      "min": [
        -0.9994907975196838,
        -0.9978522062301636,
        -0.9998189806938171
      ],
      "max": [
        0.9990569949150085,
        0.9945656657218933,
        0.9998204708099365
      ],
      "type": "VEC3"
    },
    {
      "bufferView": 0,
      "byteOffset": 12,
      "componentType": 5126,
      "normalized": false,
      "count": 2624,
      "min": [
        -0.03536498546600342,
        -1.3163201808929443,
        0.9167470932006836
      ],
      "max": [
        1.058878779411316,
        -0.7506923675537109,
        0.9445902705192566
      ],
      "type": "VEC3"
    },
    {
      "bufferView": 1,
      "byteOffset": 0,
      "componentType": 5125,
      "normalized": false,
      "count": 4020,
      "min": [
        0
      ],
      "max": [
        2623
      ],
      "type": "SCALAR"
    },
    {
      "bufferView": 2,
      "byteOffset": 0,
      "componentType": 5126,
      "normalized": false,
      "count": 1012,
      "min": [
        -0.9979943633079529,
        -0.997835099697113,
        -0.9968731999397278
      ],
      "max": [
        0.9979943633079529,
        0.9984390735626221,
        0.9962540864944458
      ],
      "type": "VEC3"
    },
    {
      "bufferView": 2,
      "byteOffset": 12,
      "componentType": 5126,
      "normalized": false,
      "count": 1012,
      "min": [
        -0.2751564681529999,
        -1.1336073875427246,
        0.4881702661514282
      ],
      "max": [
        0.2751564681529999,
        -1.0765622854232788,
        0.6047473549842834
      ],
      "type": "VEC3"
    },
    {
      "bufferView": 3,
      "byteOffset": 0,
      "componentType": 5125,
      "normalized": false,
      "count": 4896,
      "min": [
        0
      ],
      "max": [
        1011
      ],
      "type": "SCALAR"
    },
    {
      "bufferView": 4,
      "byteOffset": 0,
      "componentType": 5126,
      "normalized": false,
      "count": 436,
      "min": [
        -0.9989487528800964,
        -0.9995443820953369,
        -0.9951515197753906
      ],
      "max": [
        0.9962264895439148,
        0.9971622228622437,
        0.9925433993339539
      ],
      "type": "VEC3"
    },
    {
      "bufferView": 4,
      "byteOffset": 12,
      "componentType": 5126,
      "normalized": false,
      "count": 436,
      "min": [
        0.2691517174243927,
        -1.1169095039367676,
        0.40611499547958374
      ],
      "max": [
        0.7042370438575745,
        -0.8280296325683594,
        0.6371217370033264
      ],
      "type": "VEC3"
    },
    {
      "bufferView": 5,
      "byteOffset": 0,
      "componentType": 5125,
      "normalized": false,
      "count": 2592,
      "min": [
        0
      ],
      "max": [
        435
      ],
      "type": "SCALAR"
    },
    {
      "bufferView": 6,
      "byteOffset": 0,
      "componentType": 5126,
      "normalized": false,
      "count": 1260,
      "min": [
        -0.8977140188217163,
        -0.6391597986221313,
        -0.9967584609985352
      ],
      "max": [
        0.9654789566993713,
        0.9900023341178894,
        0.9347686171531677
      ],
      "type": "VEC3"
    },
    {
      "bufferView": 6,
      "byteOffset": 12,
      "componentType": 5126,
      "normalized": false,
      "count": 1260,
      "min": [
        -1.1301548480987549,
        -1.4120062589645386,
        0.5571901798248291
      ],
      "max": [
        -1.1107127666473389,
        -1.3764516115188599,
        0.6067544221878052
      ],
      "type": "VEC3"
    },
    {
      "bufferView": 7,
      "byteOffset": 0,
      "componentType": 5125,
      "normalized": false,
      "count": 1890,
      "min": [
        0
      ],
      "max": [
        1259
      ],
      "type": "SCALAR"
    },
    {
      "bufferView": 8,
      "byteOffset": 0,
      "componentType": 5126,
      "normalized": false,
      "count": 10496,
      "min": [
        -0.999649167060852,
        -0.999646782875061,
        -0.99955815076828
      ],
      "max": [
        0.9999845623970032,
        0.9991834759712219,
        0.9995550513267517
      ],
      "type": "VEC3"
    },
    {
      "bufferView": 8,
      "byteOffset": 12,
      "componentType": 5126,
      "normalized": false,
      "count": 10496,
      "min": [
        0.3019144833087921,
        -1.1912907361984253,
        0.6647084951400757
      ],
      "max": [
        0.7486207485198975,
        -0.9325050115585327,
        0.6952685117721558
      ],
      "type": "VEC3"
    },
    {
      "bufferView": 9,
      "byteOffset": 0,
      "componentType": 5125,
      "normalized": false,
      "count": 15744,
      "min": [
        0
      ],
      "max": [
        10495
      ],
      "type": "SCALAR"
    },
    {
      "bufferView": 10,
      "byteOffset": 0,
      "componentType": 5126,
      "normalized": false,
      "count": 8448,
      "min": [
        -0.9997274875640869,
        -0.9997657537460327,
        -0.9968606233596802
      ],
      "max": [
        0.9997925758361816,
        0.9997813701629639,
        0.9968970417976379
      ],
      "type": "VEC3"
    },
    {
      "bufferView": 10,
      "byteOffset": 12,
      "componentType": 5126,
      "normalized": false,
      "count": 8448,
      "min": [
        -1.066114902496338,
        -1.5722757577896118,
        -0.04932957887649536
      ],
      "max": [
        1.9136182069778442,
        -0.11376571655273438,
        0.9856992363929749
      ],
      "type": "VEC3"
    },
    {
      "bufferView": 11,
      "byteOffset": 0,
      "componentType": 5125,
      "normalized": false,
      "count": 50688,
      "min": [
        0
      ],
      "max": [
        8447
      ],
      "type": "SCALAR"
    }
  ],
  "scene": 0,
  "scenes": [
    {
      "nodes": [
        19
      ]
    }
  ],
  "nodes": [
    {
      "name": "Cylinder_frame_0",
      "mesh": 0
    },
    {
      "name": "Cylinder",
      "children": [
        0
      ],
      "matrix": [
        90.00260162353516,
        -0.000004277371772332117,
        43.58367919921875,
        0,
        43.58367919921875,
        -0.000008089919901976828,
        -90.00260162353516,
        0,
        0.000008046613402257208,
        100,
        -0.000005262985268927878,
        0,
        79.5631332397461,
        -0.8003950119018555,
        -190.09764099121094,
        1
      ]
    },
    {
      "name": "BezierCurve.002_frame_0",
      "mesh": 1
    },
    {
      "name": "BezierCurve.002",
      "children": [
        2
      ],
      "matrix": [
        100.00003814697266,
        -0.000002972807578771608,
        0.000004459211595531087,
        0,
        0.0000044592111407837365,
        -0.000013435890650725923,
        -100.00003814697266,
        0,
        0.0000029728073513979325,
        100,
        -0.000013435885193757713,
        0,
        79.56315612792969,
        -0.8003890514373779,
        -190.09762573242188,
        1
      ]
    },
    {
      "name": "Cylinder.002_nose_protector_0",
      "mesh": 2
    },
    {
      "name": "Cylinder.002",
      "children": [
        4
      ],
      "matrix": [
        90.00260162353516,
        -0.000004277371772332117,
        43.58367919921875,
        0,
        43.58367919921875,
        -0.000008089919901976828,
        -90.00260162353516,
        0,
        0.000008046613402257208,
        100,
        -0.000005262985268927878,
        0,
        79.56314849853516,
        -0.8003950119018555,
        -190.09764099121094,
        1
      ]
    },
    {
      "name": "Cube.002_leatherhandle_0"
    },
    {
      "name": "Cube.002",
      "children": [
        6
      ],
      "matrix": [
        90.00260162353516,
        -0.000004277371772332117,
        43.58367919921875,
        0,
        43.58367919921875,
        -0.000008089919901976828,
        -90.00260162353516,
        0,
        0.000008046613402257208,
        100,
        -0.000005262985268927878,
        0,
        79.56315612792969,
        -0.8003860712051392,
        -190.09765625,
        1
      ]
    },
    {
      "name": "Cube.001_handle_0"
    },
    {
      "name": "Cube.001_handle_0",
      "mesh": 3
    },
    {
      "name": "Cube.001",
      "children": [
        8,
        9
      ],
      "matrix": [
        90.00260162353516,
        -0.000004277371772332117,
        43.58367919921875,
        0,
        43.58367919921875,
        -0.000008089919901976828,
        -90.00260162353516,
        0,
        0.000008046613402257208,
        100,
        -0.000005262985268927878,
        0,
        79.56314849853516,
        -0.8003890514373779,
        -190.09762573242188,
        1
      ]
    },
    {
      "name": "BezierCurve.001_Glass02_0"
    },
    {
      "name": "BezierCurve.001",
      "children": [
        11
      ],
      "matrix": [
        90.00260162353516,
        -0.000004277371772332117,
        43.58367919921875,
        0,
        43.58367919921875,
        -0.000008089919901976828,
        -90.00260162353516,
        0,
        0.000008046613402257208,
        100,
        -0.000005262985268927878,
        0,
        79.56314849853516,
        -0.8003860712051392,
        -190.09764099121094,
        1
      ]
    },
    {
      "name": "Cylinder.001_frame_0",
      "mesh": 4
    },
    {
      "name": "Cylinder.001",
      "children": [
        13
      ],
      "matrix": [
        90.00260162353516,
        -0.000004277371772332117,
        43.58367919921875,
        0,
        43.58367919921875,
        -0.000008089919901976828,
        -90.00260162353516,
        0,
        0.000008046613402257208,
        100,
        -0.000005262985268927878,
        0,
        79.56314849853516,
        -0.8003890514373779,
        -190.09765625,
        1
      ]
    },
    {
      "name": "BezierCurve_frame_0",
      "mesh": 5
    },
    {
      "name": "BezierCurve",
      "children": [
        15
      ],
      "matrix": [
        90.00260162353516,
        -0.000004277371772332117,
        43.58367919921875,
        0,
        43.58367919921875,
        -0.000008089919901976828,
        -90.00260162353516,
        0,
        0.000008046613402257208,
        100,
        -0.000005262985268927878,
        0,
        79.56315612792969,
        -0.8003890514373779,
        -190.09764099121094,
        1
      ]
    },
    {
      "name": "RootNode",
      "children": [
        1,
        3,
        5,
        7,
        10,
        12,
        14,
        16
      ]
    },
    {
      "name": "f6b6407a7ccf423d8517435d5ea55064.fbx",
      "children": [
        17
      ],
      "matrix": [
        1,
        0,
        0,
        0,
        0,
        3.4228538225988814e-8,
        0.9999998211860657,
        0,
        0,
        -0.9999998211860657,
        3.4228538225988814e-8,
        0,
        0,
        0,
        0,
        1
      ]
    },
    {
      "name": "Sketchfab_model",
      "children": [
        18
      ],
      "matrix": [
        0.003000000026077032,
        0,
        0,
        0,
        0,
        1.0268562389281755e-10,
        -0.003000000026077032,
        0,
        0,
        0.003000000026077032,
        1.0268562389281755e-10,
        0,
        -0.18000000715255737,
        -0.09000000357627869,
        0.2199999988079071,
        1
      ]
    }
  ],
  "meshes": [
    {
      "primitives": [
        {
          "material": 0,
          "mode": 4,
          "attributes": {
            "NORMAL": 0,
            "POSITION": 1
          },
          "indices": 2
        }
      ]
    },
    {
      "primitives": [
        {
          "material": 1,
          "mode": 4,
          "attributes": {
            "NORMAL": 3,
            "POSITION": 4
          },
          "indices": 5
        }
      ]
    },
    {
      "primitives": [
        {
          "material": 2,
          "mode": 4,
          "attributes": {
            "NORMAL": 6,
            "POSITION": 7
          },
          "indices": 8
        }
      ]
    },
    {
      "primitives": [
        {
          "material": 3,
          "mode": 4,
          "attributes": {
            "NORMAL": 9,
            "POSITION": 10
          },
          "indices": 11
        }
      ]
    },
    {
      "primitives": [
        {
          "material": 1,
          "mode": 4,
          "attributes": {
            "NORMAL": 12,
            "POSITION": 13
          },
          "indices": 14
        }
      ]
    },
    {
      "primitives": [
        {
          "material": 1,
          "mode": 4,
          "attributes": {
            "NORMAL": 15,
            "POSITION": 16
          },
          "indices": 17
        }
      ]
    }
  ],
  "materials": [
    {
      "name": "frame",
      "pbrMetallicRoughness": {
        "baseColorFactor": [
          0.13333333333333333,
          0.13333333333333333,
          0.13333333333333333,
          1
        ],
        "metallicFactor": 0.7169938058564157,
        "roughnessFactor": 0.33149104262843276
      },
      "emissiveFactor": [
        0,
        0,
        0
      ],
      "alphaMode": "OPAQUE",
      "doubleSided": true
    },
    {
      "name": "frame",
      "pbrMetallicRoughness": {
        "baseColorFactor": [
          0.13333333333333333,
          0.13333333333333333,
          0.13333333333333333,
          1
        ],
        "metallicFactor": 0.7169938058564157,
        "roughnessFactor": 0.33149104262843276
      },
      "emissiveFactor": [
        0,
        0,
        0
      ],
      "alphaMode": "OPAQUE",
      "doubleSided": true
    },
    {
      "name": "nose_protector",
      "pbrMetallicRoughness": {
        "baseColorFactor": [
          0.14901960784313725,
          0.1450980392156863,
          0.1450980392156863,
          0.4260847149
        ],
        "metallicFactor": 0.6563877453,
        "roughnessFactor": 0.44058195170000003
      },
      "emissiveFactor": [
        0,
        0,
        0
      ],
      "alphaMode": "BLEND",
      "doubleSided": true
    },
    {
      "name": "handle",
      "pbrMetallicRoughness": {
        "baseColorFactor": [
          0.11372549019607843,
          0.11372549019607843,
          0.11372549019607843,
          1
        ],
        "metallicFactor": 0.8200241089,
        "roughnessFactor": 0.21633952749999996
      },
      "emissiveFactor": [
        0,
        0,
        0
      ],
      "alphaMode": "OPAQUE",
      "doubleSided": true
    }
  ]
}