{
  "accessors": [
    {
      "bufferView": 2,
      "componentType": 5126,
      "count": 838,
      "max": [
        15.072226524353027,
        2.5855050086975098,
        4.550970077514648
      ],
      "min": [
        14.326713562011719,
        0.9949672818183899,
        4.235558032989502
      ],
      "type": "VEC3"
    },
    {
      "bufferView": 2,
      "byteOffset": 10056,
      "componentType": 5126,
      "count": 838,
      "max": [
        0.9986216425895691,
        0.6331912875175476,
        0.5535004138946533
      ],
      "min": [
        -0.7265845537185669,
        -0.5188050866127014,
        -0.9963577389717102
      ],
      "type": "VEC3"
    },
    {
      "bufferView": 1,
      "componentType": 5126,
      "count": 838,
      "max": [
        1.0,
        1.0
      ],
      "min": [
        0.0,
        0.0
      ],
      "type": "VEC2"
    },
    {
      "bufferView": 1,
      "byteOffset": 6704,
      "componentType": 5126,
      "count": 838,
      "max": [
        1.0,
        1.0
      ],
      "min": [
        0.0,
        0.0
      ],
      "type": "VEC2"
    },
    {
      "bufferView": 1,
      "byteOffset": 13408,
      "componentType": 5126,
      "count": 838,
      "max": [
        1.0,
        1.0
      ],
      "min": [
        0.0,
        0.0
      ],
      "type": "VEC2"
    },
    {
      "bufferView": 1,
      "byteOffset": 20112,
      "componentType": 5126,
      "count": 838,
      "max": [
        1.0,
        1.0
      ],
      "min": [
        0.0,
        0.0
      ],
      "type": "VEC2"
    },
    {
      "bufferView": 1,
      "byteOffset": 26816,
      "componentType": 5126,
      "count": 838,
      "max": [
        1.0,
        1.0
      ],
      "min": [
        0.0,
        0.0
      ],
      "type": "VEC2"
    },
    {
      "bufferView": 1,
      "byteOffset": 33520,
      "componentType": 5126,
      "count": 838,
      "max": [
        1.0,
        1.0
      ],
      "min": [
        0.0,
        0.0
      ],
      "type": "VEC2"
    },
    {
      "bufferView": 1,
      "byteOffset": 40224,
      "componentType": 5126,
      "count": 838,
      "max": [
        1.0,
        1.0
      ],
      "min": [
        0.0,
        0.0
      ],
      "type": "VEC2"
    },
    {
      "bufferView": 1,
      "byteOffset": 46928,
      "componentType": 5126,
      "count": 838,
      "max": [
        1.0,
        1.0
      ],
      "min": [
        0.0,
        0.0
      ],
      "type": "VEC2"
    },
    {
      "bufferView": 1,
      "byteOffset": 53632,
      "componentType": 5126,
      "count": 838,
      "max": [
        1.0,
        1.0
      ],
      "min": [
        0.0,
        0.0
      ],
      "type": "VEC2"
    },
    {
      "bufferView": 1,
      "byteOffset": 60336,
      "componentType": 5126,
      "count": 838,
      "max": [
        1.0,
        1.0
      ],
      "min": [
        0.0,
        0.0
      ],
      "type": "VEC2"
    },
    {
      "bufferView": 0,
      "componentType": 5125,
      "count": 4710,
      "type": "SCALAR"
    },
    {
      "bufferView": 2,
      "byteOffset": 20112,
      "componentType": 5126,
      "count": 838,
      "max": [
        13.525514602661133,
        2.5855050086975098,
        4.550970077514648
      ],
      "min": [
        12.780001640319824,
        0.9949672818183899,
        4.235558032989502
      ],
      "type": "VEC3"
    },
    {
      "bufferView": 2,
      "byteOffset": 30168,
      "componentType": 5126,
      "count": 838,
      "max": [
        0.7265845537185669,
        0.6331912875175476,
        0.5535004138946533
      ],
      "min": [
        -0.9986216425895691,
        -0.5188050866127014,
        -0.9963577389717102
      ],
      "type": "VEC3"
    },
    {
      "bufferView": 1,
      "byteOffset": 67040,
      "componentType": 5126,
      "count": 838,
      "max": [
        1.0,
        1.0
      ],
      "min": [
        0.0,
        0.0
      ],
      "type": "VEC2"
    },
    {
      "bufferView": 1,
      "byteOffset": 73744,
      "componentType": 5126,
      "count": 838,
      "max": [
        1.0,
        1.0
      ],
      "min": [
        0.0,
        0.0
      ],
      "type": "VEC2"
    },
    {
      "bufferView": 1,
      "byteOffset": 80448,
      "componentType": 5126,
      "count": 838,
      "max": [
        1.0,
        1.0
      ],
      "min": [
        0.0,
        0.0
      ],
      "type": "VEC2"
    },
    {
      "bufferView": 1,
      "byteOffset": 87152,
      "componentType": 5126,
      "count": 838,
      "max": [
        1.0,
        1.0
      ],
      "min": [
        0.0,
        0.0
      ],
      "type": "VEC2"
    },
    {
      "bufferView": 1,
      "byteOffset": 93856,
      "componentType": 5126,
      "count": 838,
      "max": [
        1.0,
        1.0
      ],
      "min": [
        0.0,
        0.0
      ],
      "type": "VEC2"
    },
    {
      "bufferView": 1,
      "byteOffset": 100560,
      "componentType": 5126,
      "count": 838,
      "max": [
        1.0,
        1.0
      ],
      "min": [
        0.0,
        0.0
      ],
      "type": "VEC2"
    },
    {
      "bufferView": 1,
      "byteOffset": 107264,
      "componentType": 5126,
      "count": 838,
      "max": [
        1.0,
        1.0
      ],
      "min": [
        0.0,
        0.0
      ],
      "type": "VEC2"
    },
    {
      "bufferView": 1,
      "byteOffset": 113968,
      "componentType": 5126,
      "count": 838,
      "max": [
        1.0,
        1.0
      ],
      "min": [
        0.0,
        0.0
      ],
      "type": "VEC2"
    },
    {
      "bufferView": 1,
      "byteOffset": 120672,
      "componentType": 5126,
      "count": 838,
      "max": [
        1.0,
        1.0
      ],
      "min": [
        0.0,
        0.0
      ],
      "type": "VEC2"
    },
    {
      "bufferView": 1,
      "byteOffset": 127376,
      "componentType": 5126,
      "count": 838,
      "max": [
        1.0,
        1.0
      ],
      "min": [
        0.0,
        0.0
      ],
      "type": "VEC2"
    },
    {
      "bufferView": 0,
      "byteOffset": 18840,
      "componentType": 5125,
      "count": 4710,
      "type": "SCALAR"
    },
    {
      "bufferView": 2,
      "byteOffset": 40224,
      "componentType": 5126,
      "count": 18145,
      "max": [
        19.204147338867188,
        3.880825996398926,
        4.877952575683594
      ],
      "min": [
        8.64808464050293,
        0.10962377488613129,
        -4.895150661468506
      ],
      "type": "VEC3"
    },
    {
      "bufferView": 2,
      "byteOffset": 257964,
      "componentType": 5126,
      "count": 18145,
      "max": [
        0.9999987483024597,
        1.0,
        0.9999995231628418
      ],
      "min": [
        -0.9999987483024597,
        -0.9999989867210388,
        -0.9999980330467224
      ],
      "type": "VEC3"
    },
    {
      "bufferView": 1,
      "byteOffset": 134080,
      "componentType": 5126,
      "count": 18145,
      "max": [
        0.99853515625,
        0.9972475171089172
      ],
      "min": [
        0.0,
        0.0
      ],
      "type": "VEC2"
    },
    {
      "bufferView": 1,
      "byteOffset": 279240,
      "componentType": 5126,
      "count": 18145,
      "max": [
        0.99853515625,
        0.9972475171089172
      ],
      "min": [
        0.0,
        0.0
      ],
      "type": "VEC2"
    },
    {
      "bufferView": 1,
      "byteOffset": 424400,
      "componentType": 5126,
      "count": 18145,
      "max": [
        0.99853515625,
        0.9972475171089172
      ],
      "min": [
        0.0,
        0.0
      ],
      "type": "VEC2"
    },
    {
      "bufferView": 1,
      "byteOffset": 569560,
      "componentType": 5126,
      "count": 18145,
      "max": [
        0.99853515625,
        0.9972475171089172
      ],
      "min": [
        0.0,
        0.0
      ],
      "type": "VEC2"
    },
    {
      "bufferView": 1,
      "byteOffset": 714720,
      "componentType": 5126,
      "count": 18145,
      "max": [
        0.99853515625,
        0.9972475171089172
      ],
      "min": [
        0.0,
        0.0
      ],
      "type": "VEC2"
    },
    {
      "bufferView": 1,
      "byteOffset": 859880,
      "componentType": 5126,
      "count": 18145,
      "max": [
        0.99853515625,
        0.9972475171089172
      ],
      "min": [
        0.0,
        0.0
      ],
      "type": "VEC2"
    },
    {
      "bufferView": 1,
      "byteOffset": 1005040,
      "componentType": 5126,
      "count": 18145,
      "max": [
        0.99853515625,
        0.9972475171089172
      ],
      "min": [
        0.0,
        0.0
      ],
      "type": "VEC2"
    },
    {
      "bufferView": 1,
      "byteOffset": 1150200,
      "componentType": 5126,
      "count": 18145,
      "max": [
        0.99853515625,
        0.9972475171089172
      ],
      "min": [
        0.0,
        0.0
      ],
      "type": "VEC2"
    },
    {
      "bufferView": 1,
      "byteOffset": 1295360,
      "componentType": 5126,
      "count": 18145,
      "max": [
        0.99853515625,
        0.9972475171089172
      ],
      "min": [
        0.0,
        0.0
      ],
      "type": "VEC2"
    },
    {
      "bufferView": 1,
      "byteOffset": 1440520,
      "componentType": 5126,
      "count": 18145,
      "max": [
        0.99853515625,
        0.9972475171089172
      ],
      "min": [
        0.0,
        0.0
      ],
      "type": "VEC2"
    },
    {
      "bufferView": 0,
      "byteOffset": 37680,
      "componentType": 5125,
      "count": 79416,
      "type": "SCALAR"
    },
    {
      "bufferView": 2,
      "byteOffset": 475704,
      "componentType": 5126,
      "count": 508,
      "max": [
        18.291675567626953,
        3.487086534500122,
        5.035197734832764
      ],
      "min": [
        14.762187004089355,
        0.31983137130737305,
        4.255627155303955
      ],
      "type": "VEC3"
    },
    {
      "bufferView": 2,
      "byteOffset": 481800,
      "componentType": 5126,
      "count": 508,
      "max": [
        0.9999693632125854,
        0.9999932050704956,
        0.9997287392616272
      ],
      "min": [
        -0.9995209574699402,
        -0.999991238117218,
        -0.9997287392616272
      ],
      "type": "VEC3"
    },
    {
      "bufferView": 1,
      "byteOffset": 1585680,
      "componentType": 5126,
      "count": 508,
      "max": [
        0.99853515625,
        0.756647527217865
      ],
      "min": [
        0.0,
        0.0
      ],
      "type": "VEC2"
    },
    {
      "bufferView": 1,
      "byteOffset": 1589744,
      "componentType": 5126,
      "count": 508,
      "max": [
        0.99853515625,
        0.756647527217865
      ],
      "min": [
        0.0,
        0.0
      ],
      "type": "VEC2"
    },
    {
      "bufferView": 1,
      "byteOffset": 1593808,
      "componentType": 5126,
      "count": 508,
      "max": [
        0.99853515625,
        0.756647527217865
      ],
      "min": [
        0.0,
        0.0
      ],
      "type": "VEC2"
    },
    {
      "bufferView": 1,
      "byteOffset": 1597872,
      "componentType": 5126,
      "count": 508,
      "max": [
        0.99853515625,
        0.756647527217865
      ],
      "min": [
        0.0,
        0.0
      ],
      "type": "VEC2"
    },
    {
      "bufferView": 1,
      "byteOffset": 1601936,
      "componentType": 5126,
      "count": 508,
      "max": [
        0.99853515625,
        0.756647527217865
      ],
      "min": [
        0.0,
        0.0
      ],
      "type": "VEC2"
    },
    {
      "bufferView": 1,
      "byteOffset": 1606000,
      "componentType": 5126,
      "count": 508,
      "max": [
        0.99853515625,
        0.756647527217865
      ],
      "min": [
        0.0,
        0.0
      ],
      "type": "VEC2"
    },
    {
      "bufferView": 1,
      "byteOffset": 1610064,
      "componentType": 5126,
      "count": 508,
      "max": [
        0.99853515625,
        0.756647527217865
      ],
      "min": [
        0.0,
        0.0
      ],
      "type": "VEC2"
    },
    {
      "bufferView": 1,
      "byteOffset": 1614128,
      "componentType": 5126,
      "count": 508,
      "max": [
        0.99853515625,
        0.756647527217865
      ],
      "min": [
        0.0,
        0.0
      ],
      "type": "VEC2"
    },
    {
      "bufferView": 1,
      "byteOffset": 1618192,
      "componentType": 5126,
      "count": 508,
      "max": [
        0.99853515625,
        0.756647527217865
      ],
      "min": [
        0.0,
        0.0
      ],
      "type": "VEC2"
    },
    {
      "bufferView": 1,
      "byteOffset": 1622256,
      "componentType": 5126,
      "count": 508,
      "max": [
        0.99853515625,
        0.756647527217865
      ],
      "min": [
        0.0,
        0.0
      ],
      "type": "VEC2"
    },
    {
      "bufferView": 0,
      "byteOffset": 355344,
      "componentType": 5125,
      "count": 2106,
      "type": "SCALAR"
    },
    {
      "bufferView": 2,
      "byteOffset": 487896,
      "componentType": 5126,
      "count": 508,
      "max": [
        13.090041160583496,
        3.487086534500122,
        5.035197734832764
      ],
      "min": [
        9.560552597045898,
        0.31983137130737305,
        4.255627155303955
      ],
      "type": "VEC3"
    },
    {
      "bufferView": 2,
      "byteOffset": 493992,
      "componentType": 5126,
      "count": 508,
      "max": [
        0.9995209574699402,
        0.9999932050704956,
        0.9997287392616272
      ],
      "min": [
        -0.9999693632125854,
        -0.999991238117218,
        -0.9997287392616272
      ],
      "type": "VEC3"
    },
    {
      "bufferView": 1,
      "byteOffset": 1626320,
      "componentType": 5126,
      "count": 508,
      "max": [
        0.99853515625,
        0.756647527217865
      ],
      "min": [
        0.0,
        0.0
      ],
      "type": "VEC2"
    },
    {
      "bufferView": 1,
      "byteOffset": 1630384,
      "componentType": 5126,
      "count": 508,
      "max": [
        0.99853515625,
        0.756647527217865
      ],
      "min": [
        0.0,
        0.0
      ],
      "type": "VEC2"
    },
    {
      "bufferView": 1,
      "byteOffset": 1634448,
      "componentType": 5126,
      "count": 508,
      "max": [
        0.99853515625,
        0.756647527217865
      ],
      "min": [
        0.0,
        0.0
      ],
      "type": "VEC2"
    },
    {
      "bufferView": 1,
      "byteOffset": 1638512,
      "componentType": 5126,
      "count": 508,
      "max": [
        0.99853515625,
        0.756647527217865
      ],
      "min": [
        0.0,
        0.0
      ],
      "type": "VEC2"
    },
    {
      "bufferView": 1,
      "byteOffset": 1642576,
      "componentType": 5126,
      "count": 508,
      "max": [
        0.99853515625,
        0.756647527217865
      ],
      "min": [
        0.0,
        0.0
      ],
      "type": "VEC2"
    },
    {
      "bufferView": 1,
      "byteOffset": 1646640,
      "componentType": 5126,
      "count": 508,
      "max": [
        0.99853515625,
        0.756647527217865
      ],
      "min": [
        0.0,
        0.0
      ],
      "type": "VEC2"
    },
    {
      "bufferView": 1,
      "byteOffset": 1650704,
      "componentType": 5126,
      "count": 508,
      "max": [
        0.99853515625,
        0.756647527217865
      ],
      "min": [
        0.0,
        0.0
      ],
      "type": "VEC2"
    },
    {
      "bufferView": 1,
      "byteOffset": 1654768,
      "componentType": 5126,
      "count": 508,
      "max": [
        0.99853515625,
        0.756647527217865
      ],
      "min": [
        0.0,
        0.0
      ],
      "type": "VEC2"
    },
    {
      "bufferView": 1,
      "byteOffset": 1658832,
      "componentType": 5126,
      "count": 508,
      "max": [
        0.99853515625,
        0.756647527217865
      ],
      "min": [
        0.0,
        0.0
      ],
      "type": "VEC2"
    },
    {
      "bufferView": 1,
      "byteOffset": 1662896,
      "componentType": 5126,
      "count": 508,
      "max": [
        0.99853515625,
        0.756647527217865
      ],
      "min": [
        0.0,
        0.0
      ],
      "type": "VEC2"
    },
    {
      "bufferView": 0,
      "byteOffset": 363768,
      "componentType": 5125,
      "count": 2106,
      "type": "SCALAR"
    }
  ],
  "asset": {
    "extras": {
      "author": "Ahmad Riazi (https://sketchfab.com/ahmadriazi)",
      "license": "CC-BY-4.0 (http://creativecommons.org/licenses/by/4.0/)",
      "source": "https://sketchfab.com/3d-models/glasses-1620b0155c7b4948bdf71f2f8af390b9",
      "title": "Glasses"
    },
    "generator": "Sketchfab-15.29.0",
    "version": "2.0"
  },
  "bufferViews": [
    {
      "buffer": 0,
      "byteLength": 372192,
      "name": "floatBufferViews",
      "target": 34963
    },
    {
      "buffer": 0,
      "byteLength": 1666960,
      "byteOffset": 372192,
      "byteStride": 8,
      "name": "floatBufferViews",
      "target": 34962
    },
    {
      "buffer": 0,
      "byteLength": 500088,
      "byteOffset": 2039152,
      "byteStride": 12,
      "name": "floatBufferViews",
      "target": 34962
    }
  ],
  "buffers": [
    {
      "byteLength": 2539240,
      "uri": "scene.bin"
    }
  ],
  "extensionsUsed": [
    "KHR_materials_specular"
  ],
  "materials": [
    {
      "doubleSided": true,
      "name": "Plastic",
      "pbrMetallicRoughness": {
        "baseColorFactor": [
          0.005097615027984815,
          0.0008886008098460667,
          0.00014850691751283303,
          1.0
        ],
        "metallicFactor": 0.0,
        "roughnessFactor": 0.0
      }
    },
    {
      "alphaMode": "BLEND",
      "doubleSided": true,
      "extensions": {
        "KHR_materials_specular": {
          "specularColorFactor": [
            1.0,
            1.0,
            1.0
          ],
          "specularFactor": 1.0
        }
      },
      "name": "Glass",
      "pbrMetallicRoughness": {
        "baseColorFactor": [
          0.10829235995947611,
          0.10829235995947611,
          0.10829235995947611,
          0.26666747936755614
        ],
        "roughnessFactor": 0.0
      }
    }
  ],
  "meshes": [
    {
      "name": "Object_1_Plastic_0",
      "primitives": [
        {
          "attributes": {
            "NORMAL": 1,
            "POSITION": 0,
            "TEXCOORD_0": 2,
            "TEXCOORD_1": 3,
            "TEXCOORD_2": 4,
            "TEXCOORD_3": 5,
            "TEXCOORD_4": 6,
            "TEXCOORD_5": 7,
            "TEXCOORD_6": 8,
            "TEXCOORD_7": 9,
            "TEXCOORD_8": 10,
            "TEXCOORD_9": 11
          },
          "indices": 12,
          "material": 0,
          "mode": 4
        }
      ]
    },
    {
      "name": "Object_2_Plastic_0",
      "primitives": [
        {
          "attributes": {
            "NORMAL": 14,
            "POSITION": 13,
            "TEXCOORD_0": 15,
            "TEXCOORD_1": 16,
            "TEXCOORD_2": 17,
            "TEXCOORD_3": 18,
            "TEXCOORD_4": 19,
            "TEXCOORD_5": 20,
            "TEXCOORD_6": 21,
            "TEXCOORD_7": 22,
            "TEXCOORD_8": 23,
            "TEXCOORD_9": 24
          },
          "indices": 25,
          "material": 0,
          "mode": 4
        }
      ]
    },
    {
      "name": "Object_3_Plastic_0",
      "primitives": [
        {
          "attributes": {
            "NORMAL": 27,
            "POSITION": 26,
            "TEXCOORD_0": 28,
            "TEXCOORD_1": 29,
            "TEXCOORD_2": 30,
            "TEXCOORD_3": 31,
            "TEXCOORD_4": 32,
            "TEXCOORD_5": 33,
            "TEXCOORD_6": 34,
            "TEXCOORD_7": 35,
            "TEXCOORD_8": 36,
            "TEXCOORD_9": 37
          },
          "indices": 38,
          "material": 0,
          "mode": 4
        }
      ]
    },
    {
      "name": "Object_4_Glass_0",
      "primitives": [
        {
          "attributes": {
            "NORMAL": 40,
            "POSITION": 39,
            "TEXCOORD_0": 41,
            "TEXCOORD_1": 42,
            "TEXCOORD_2": 43,
            "TEXCOORD_3": 44,
            "TEXCOORD_4": 45,
            "TEXCOORD_5": 46,
            "TEXCOORD_6": 47,
            "TEXCOORD_7": 48,
            "TEXCOORD_8": 49,
            "TEXCOORD_9": 50
          },
          "indices": 51,
          "material": 1,
          "mode": 4
        }
      ]
    },
    {
      "name": "Object_5_Glass_0",
      "primitives": [
        {
          "attributes": {
            "NORMAL": 53,
            "POSITION": 52,
            "TEXCOORD_0": 54,
            "TEXCOORD_1": 55,
            "TEXCOORD_2": 56,
            "TEXCOORD_3": 57,
            "TEXCOORD_4": 58,
            "TEXCOORD_5": 59,
            "TEXCOORD_6": 60,
            "TEXCOORD_7": 61,
            "TEXCOORD_8": 62,
            "TEXCOORD_9": 63
          },
          "indices": 64,
          "material": 1,
          "mode": 4
        }
      ]
    }
  ],
  "nodes": [
    {
      "children": [
        1
      ],
      "matrix": [
        1.0,
        0.0,
        0.0,
        0.0,
        0.0,
        2.220446049250313e-16,
        -1.0,
        0.0,
        0.0,
        1.0,
        2.220446049250313e-16,
        0.0,
        0.0,
        0.0,
        0.0,
        1.0
      ],
      "name": "Sketchfab_model"
    },
    {
      "children": [
        2
      ],
      "matrix": [
        0.0010000000474974513,
        0.0,
        0.0,
        0.0,
        0.0,
        0.0,
        0.0010000000474974513,
        0.0,
        0.0,
        -0.0010000000474974513,
        0.0,
        0.0,
        0.0,
        0.0,
        0.0,
        1.0
      ],
      "name": "52611adb19b74d86add32aa84f2c89e6.fbx"
    },
    {
      "children": [
        3,
        10,
        15,
        17,
        19,
        21
      ],
      "name": "RootNode"
    },
    {
      "children": [
        4,
        6,
        8
      ],
      "name": "Layer 03"
    },
    {
      "children": [
        5
      ],
      "name": "Object_1"
    },
    {
      "mesh": 0,
      "name": "Object_1_Plastic_0"
    },
    {
      "children": [
        7
      ],
      "name": "Object_2"
    },
    {
      "mesh": 1,
      "name": "Object_2_Plastic_0"
    },
    {
      "children": [
        9
      ],
      "name": "Object_3"
    },
    {
      "mesh": 2,
      "name": "Object_3_Plastic_0"
    },
    {
      "children": [
        11,
        13
      ],
      "name": "Layer 04"
    },
    {
      "children": [
        12
      ],
      "name": "Object_4"
    },
    {
      "mesh": 3,
      "name": "Object_4_Glass_0"
    },
    {
      "children": [
        14
      ],
      "name": "Object_5"
    },
    {
      "mesh": 4,
      "name": "Object_5_Glass_0"
    },
    {
      "children": [
        16
      ],
      "matrix": [
        0.47237566880778015,
        0.7892594773134359,
        -0.3923400374538956,
        0.0,
        -0.7892594773134359,
        0.5769214774966496,
        0.210311878585126,
        0.0,
        0.3923400374538956,
        0.21031187858512596,
        0.8954541913111307,
        0.0,
        -3.2074503898620605,
        -28.128101348876953,
        13.094482421875,
        1.0
      ],
      "name": "Perspective"
    },
    {
      "name": "Object_16"
    },
    {
      "children": [
        18
      ],
      "matrix": [
        2.220446049250313e-16,
        0.0,
        -1.0,
        0.0,
        0.0,
        1.0,
        0.0,
        0.0,
        1.0,
        0.0,
        2.220446049250313e-16,
        0.0,
        -0.8815153241157532,
        -4.023654460906982,
        80.2123031616211,
        1.0
      ],
      "name": "Top"
    },
    {
      "name": "Object_18"
    },
    {
      "children": [
        20
      ],
      "matrix": [
        2.220446049250313e-16,
        1.0,
        0.0,
        0.0,
        -1.0,
        2.220446049250313e-16,
        0.0,
        0.0,
        0.0,
        0.0,
        1.0,
        0.0,
        -0.6418400406837463,
        -80.2123031616211,
        2.421266794204712,
        1.0
      ],
      "name": "Front"
    },
    {
      "name": "Object_20"
    },
    {
      "children": [
        22
      ],
      "matrix": [
        1.0,
        0.0,
        0.0,
        0.0,
        0.0,
        -1.0,
        1.2246467991473532e-16,
        0.0,
        0.0,
        -1.2246467991473532e-16,
        -1.0,
        0.0,
        80.2123031616211,
        -4.590548038482666,
        2.7466719150543213,
        1.0
      ],
      "name": "Right"
    },
    {
      "name": "Object_22"
    }
  ],
  "scene": 0,
  "scenes": [
    {
      "name": "Sketchfab_Scene",
      "nodes": [
        0
      ]
    }
  ]
}
