{
  "asset": {
    "extras": {
      "author": "drydoctoregg (https://sketchfab.com/drydoctoregg)",
      "license": "CC-BY-4.0 (http://creativecommons.org/licenses/by/4.0/)",
      "source": "https://sketchfab.com/3d-models/glasses-bd1104e5ad1e4a1b9e1793a606c5be82",
      "title": "Glasses"
    },
    "generator": "Sketchfab-12.66.0",
    "version": "2.0"
  },
  "buffers": [
    {
      "uri": "data:application/octet-stream;base64,",
      "byteLength": 379824
    },
    {
      "uri": "data:application/octet-stream;base64,",
      "byteLength": 2332248
    },
    {
      "uri": "data:application/octet-stream;base64,",
      "byteLength": 37800
    }
  ],
  "bufferViews": [
    {
      "buffer": 0,
      "byteOffset": 0,
      "byteLength": 190896,
      "byteStride": 24,
      "target": 34962
    },
    {
      "buffer": 0,
      "byteOffset": 190896,
      "byteLength": 188928,
      "target": 34963
    },
    {
      "buffer": 1,
      "byteOffset": 0,
      "byteLength": 1572768,
      "byteStride": 24,
      "target": 34962
    },
    {
      "buffer": 1,
      "byteOffset": 1572768,
      "byteLength": 759480,
      "target": 34963
    },
    {
      "buffer": 2,
      "byteOffset": 0,
      "byteLength": 30240,
      "byteStride": 24,
      "target": 34962
    },
    {
      "buffer": 2,
      "byteOffset": 30240,
      "byteLength": 7560,
      "target": 34963
    }
  ],
  "accessors": [
    {
      "bufferView": 0,
      "byteOffset": 0,
      "componentType": 5126,
      "normalized": false,
      "count": 7954,
      "min": [
        -0.9989157319068909,
        -0.9975643754005432,
        -0.9997632503509521
      ],
      "max": [
        0.9983249306678772,
        0.999948263168335,
        0.9968685507774353
      ],
      "type": "VEC3"
    },
    {
      "bufferView": 0,
      "byteOffset": 12,
      "componentType": 5126,
      "normalized": false,
      "count": 7954,
      "min": [
        -2.270690441131592,
        0.08159470558166504,
        -0.0447688102722168
      ],
      "max": [
        1.126613736152649,
        2.3922159671783447,
        0.49988678097724915
      ],
      "type": "VEC3"
    },
    {
      "bufferView": 1,
      "byteOffset": 0,
      "componentType": 5125,
      "normalized": false,
      "count": 47232,
      "min": [
        0
      ],
      "max": [
        7953
      ],
      "type": "SCALAR"
    },
    {
      "bufferView": 2,
      "byteOffset": 0,
      "componentType": 5126,
      "normalized": false,
      "count": 65532,
      "min": [
        -0.9999420642852783,
        -0.9999018907546997,
        -0.9995043277740479
      ],
      "max": [
        0.9999359846115112,
        0.9996457099914551,
        0.9995652437210083
      ],
      "type": "VEC3"
    },
    {
      "bufferView": 2,
      "byteOffset": 12,
      "componentType": 5126,
      "normalized": false,
      "count": 65532,
      "min": [
        -2.2548508644104004,
        -1.565434455871582,
        0.021440714597702026
      ],
      "max": [
        1.9095522165298462,
        2.3778955936431885,
        0.6381725072860718
      ],
      "type": "VEC3"
    },
    {
      "bufferView": 3,
      "byteOffset": 0,
      "componentType": 5125,
      "normalized": false,
      "count": 189870,
      "min": [
        0
      ],
      "max": [
        65531
      ],
      "type": "SCALAR"
    },
    {
      "bufferView": 4,
      "byteOffset": 0,
      "componentType": 5126,
      "normalized": false,
      "count": 1260,
      "min": [
        -0.8977140188217163,
        -0.6391597986221313,
        -0.9967584609985352
      ],
      "max": [
        0.9654789566993713,
        0.9900023341178894,
        0.9347686171531677
      ],
      "type": "VEC3"
    },
    {
      "bufferView": 4,
      "byteOffset": 12,
      "componentType": 5126,
      "normalized": false,
      "count": 1260,
      "min": [
        -1.1301548480987549,
        -1.4120062589645386,
        0.5571901798248291
      ],
      "max": [
        -1.1107127666473389,
        -1.3764516115188599,
        0.6067544221878052
      ],
      "type": "VEC3"
    },
    {
      "bufferView": 5,
      "byteOffset": 0,
      "componentType": 5125,
      "normalized": false,
      "count": 1890,
      "min": [
        0
      ],
      "max": [
        1259
      ],
      "type": "SCALAR"
    }
  ],
  "scene": 0,
  "scenes": [
    {
      "nodes": [
        7
      ]
    }
  ],
  "nodes": [
    {
      "name": "Cube.002_leatherhandle_0",
      "mesh": 0
    },
    {
      "name": "Cube.002",
      "children": [
        0
      ],
      "matrix": [
        90.00260162353516,
        -0.000004277371772332117,
        43.58367919921875,
        0,
        43.58367919921875,
        -0.000008089919901976828,
        -90.00260162353516,
        0,
        0.000008046613402257208,
        100,
        -0.000005262985268927878,
        0,
        79.56315612792969,
        -0.8003860712051392,
        -190.09765625,
        1
      ]
    },
    {
      "name": "Cube.001_handle_0",
      "mesh": 1
    },
    {
      "name": "Cube.001_handle_0",
      "mesh": 2
    },
    {
      "name": "Cube.001",
      "children": [
        2,
        3
      ],
      "matrix": [
        90.00260162353516,
        -0.000004277371772332117,
        43.58367919921875,
        0,
        43.58367919921875,
        -0.000008089919901976828,
        -90.00260162353516,
        0,
        0.000008046613402257208,
        100,
        -0.000005262985268927878,
        0,
        79.56314849853516,
        -0.8003890514373779,
        -190.09762573242188,
        1
      ]
    },
    {
      "name": "RootNode",
      "children": [
        1,
        4
      ]
    },
    {
      "name": "f6b6407a7ccf423d8517435d5ea55064.fbx",
      "children": [
        5
      ],
      "matrix": [
        1,
        0,
        0,
        0,
        0,
        3.4228538225988814e-8,
        0.9999998211860657,
        0,
        0,
        -0.9999998211860657,
        3.4228538225988814e-8,
        0,
        0,
        0,
        0,
        1
      ]
    },
    {
      "name": "Sketchfab_model",
      "children": [
        6
      ],
      "matrix": [
        0.003000000026077032,
        0,
        0,
        0,
        0,
        1.0268562389281755e-10,
        -0.003000000026077032,
        0,
        0,
        0.003000000026077032,
        1.0268562389281755e-10,
        0,
        -0.18000000715255737,
        -0.09000000357627869,
        0.2199999988079071,
        1
      ]
    }
  ],
  "meshes": [
    {
      "primitives": [
        {
          "material": 0,
          "mode": 4,
          "attributes": {
            "NORMAL": 0,
            "POSITION": 1
          },
          "indices": 2
        }
      ]
    },
    {
      "primitives": [
        {
          "material": 1,
          "mode": 4,
          "attributes": {
            "NORMAL": 3,
            "POSITION": 4
          },
          "indices": 5
        }
      ]
    },
    {
      "primitives": [
        {
          "material": 1,
          "mode": 4,
          "attributes": {
            "NORMAL": 6,
            "POSITION": 7
          },
          "indices": 8
        }
      ]
    }
  ],
  "materials": [
    {
      "name": "leatherhandle",
      "pbrMetallicRoughness": {
        "baseColorFactor": [
          0.3176470588235294,
          0.3137254901960784,
          0.20392156862745098,
          1
        ],
        "metallicFactor": 0.832145321,
        "roughnessFactor": 0.46482437600000004
      },
      "emissiveFactor": [
        0,
        0,
        0
      ],
      "alphaMode": "OPAQUE",
      "doubleSided": true
    },
    {
      "name": "handle",
      "pbrMetallicRoughness": {
        "baseColorFactor": [
          0.11372549019607843,
          0.11372549019607843,
          0.11372549019607843,
          1
        ],
        "metallicFactor": 0.8200241089,
        "roughnessFactor": 0.21633952749999996
      },
      "emissiveFactor": [
        0,
        0,
        0
      ],
      "alphaMode": "OPAQUE",
      "doubleSided": true
    }
  ]
}